<svg height="32" viewBox="0 0 64 64" width="32" xmlns="http://www.w3.org/2000/svg"><g id="Fill_Outline" data-name="Fill Outline"><g id="Stroke_copy" data-name="Stroke copy"><g><g><path d="m26 18.664h-4v-8a2 2 0 0 1 .891-1.664l9-6 2.218 3.328-8.109 5.406z" fill="#f9e109"/><path d="m34.11 6.33-8.11 5.4v6.93h-4v-8a1.994 1.994 0 0 1 .89-1.66l1.01-.68a5.35 5.35 0 0 0 4.82-.75l4.19-3.05z" fill="#fcbc04"/><path d="m35 61h-22l-4-35h30z" fill="#f8664f"/><path d="m11 22h26a2 2 0 0 1 2 2v2a0 0 0 0 1 0 0h-30a0 0 0 0 1 0 0v-2a2 2 0 0 1 2-2z" fill="#84d2f4"/><path d="m16 18h16a2 2 0 0 1 2 2v2a0 0 0 0 1 0 0h-20a0 0 0 0 1 0 0v-2a2 2 0 0 1 2-2z" fill="#84d2f4"/><path d="m38.66 29h-22.66a34.147 34.147 0 0 0 21.53 9.9l-2.53 22.1h-22l-4-35h30z" fill="#cc5144"/><g fill="#57b7eb"><path d="m39 24v2h-30v-2a2.006 2.006 0 0 1 2-2 2.006 2.006 0 0 0 2 2z"/><path d="m34 20v2h-20v-2a2.006 2.006 0 0 1 2-2 2.006 2.006 0 0 0 2 2z"/></g></g><g><path d="m45 23-2 25-1 11 5 1 3-36-3-1.6z" fill="#e59730"/><path d="m39 28 2 24h6l-2-25-3-3z" fill="#fcbc04"/><path d="m47 52h-6l-2-24 1.18-1.57 1.82 14.57h1l1.09-6.36.91-.64.61.61z" fill="#e59730"/><path d="m37 31-2.963-1.018-1.037 3.018 5 16 4.667-2z" fill="#f9e109"/><path d="m42.67 47-4.67 2-5-16 1.02-2.95 1.83 5.5a17.733 17.733 0 0 0 5.66 8.18z" fill="#fcbc04"/><path d="m55 24-4.079 19h4.079l3-14z" fill="#f9e109"/><path d="m54.848 33.325 1.6-6.918-1.448-2.407-4.079 19h4.079l1.363-6.359a3 3 0 0 1 -1.515-3.316z" fill="#fcbc04"/><path d="m27 30 7 19 4-1-7-18z" fill="#f9e109"/><path d="m27 30 7 19 2-.5-7.142-18.5z" fill="#fcbc04"/><path d="m49 27-3 24 4-1 4-21z" fill="#f9e109"/><path d="m51.72 40.97-1.72 9.03-4 1 3-24 1.94.78-.8 11.23a1.856 1.856 0 0 0 1.58 1.96z" fill="#fcbc04"/><path d="m48 52h-4l1-18 4 1z" fill="#f9e109"/><path d="m46.732 42.567.226-8.077-1.958-.49-1 18h4l.393-6.674a3 3 0 0 1 -1.661-2.759z" fill="#fcbc04"/><path d="m53 39c0 3.866-4.029 7-9 7s-9-3.134-9-7h-5l3 22h22l3-22z" fill="#84d2f4"/><path d="m55.55 57-.55 4h-22l-3-22h5a6.112 6.112 0 0 0 2.07 4.46 15.991 15.991 0 0 0 15.81 13.54z" fill="#57b7eb"/><circle cx="44" cy="54" fill="#f9e109" r="3"/><path d="m46.49 55.67a3 3 0 0 1 -5.49-1.67 2.947 2.947 0 0 1 .54-1.71 15.951 15.951 0 0 0 4.95 3.38z" fill="#fcbc04"/></g><g><path d="m30 51h-18a4 4 0 0 1 -4-4 4 4 0 0 1 4-4h18a4 4 0 0 1 4 4 4 4 0 0 1 -4 4z" fill="#f89c8d"/><path d="m32 49a3.931 3.931 0 0 0 1.64-.36 3.865 3.865 0 0 1 -.81 1.19 4.025 4.025 0 0 1 -2.83 1.17h-18a4 4 0 0 1 -2.83-6.83 3.865 3.865 0 0 1 1.19-.81 3.931 3.931 0 0 1 1.64-.36h18a4 4 0 0 1 2.64 1 3.833 3.833 0 0 1 1.1 1.6 2.116 2.116 0 0 1 -1.85 1.09 2.163 2.163 0 0 1 -.95-.22 2.076 2.076 0 0 0 -1.88 0l-2.12 1.06a2.076 2.076 0 0 1 -1.88 0l-2.12-1.06a2.076 2.076 0 0 0 -1.88 0l-2.12 1.06a2.076 2.076 0 0 1 -1.88 0l-2.12-1.06a2.076 2.076 0 0 0 -1.88 0l-1.61.81a3.1 3.1 0 0 1 -.58.21 3.984 3.984 0 0 0 3.13 1.51z" fill="#f8664f"/><path d="m6 55h30a0 0 0 0 1 0 0v2a4 4 0 0 1 -4 4h-22a4 4 0 0 1 -4-4v-2a0 0 0 0 1 0 0z" fill="#fcbc04"/><path d="m23.8 55-.8 1-.8-1z" fill="#e59730"/><path d="m23.8 55-.8 1-.8-1z" fill="#e59730"/><path d="m32 55h-22a2 2 0 0 1 -2-2 2 2 0 0 1 2-2h22a2 2 0 0 1 2 2 2 2 0 0 1 -2 2z" fill="#cc5144"/><path d="m24 56-4-5h8z" fill="#f7f754"/><path d="m23.657 52.072-.857-1.072h-2.8l4 5 2.265-2.831a2.974 2.974 0 0 1 -2.608-1.097z" fill="#f9e109"/><path d="m7 43a3.234 3.234 0 0 0 1.789 2.894l.764.382a3.232 3.232 0 0 0 2.894 0l1.609-.8a2.112 2.112 0 0 1 1.888 0l2.112 1.056a2.112 2.112 0 0 0 1.888 0l2.112-1.056a2.112 2.112 0 0 1 1.888 0l2.112 1.056a2.112 2.112 0 0 0 1.888 0l2.112-1.056a2.112 2.112 0 0 1 1.888 0 2.112 2.112 0 0 0 3.056-1.892v-.584z" fill="#c4f236"/><path d="m26 33h-10a10 10 0 0 0 -10 10h30a10 10 0 0 0 -10-10z" fill="#fcbc04"/><path d="m36 43h-30a10 10 0 0 1 7.32-9.63 9 9 0 0 0 8.68 6.63h13.54a9.908 9.908 0 0 1 .46 3z" fill="#e59730"/><path d="m36 57a4 4 0 0 1 -4 4h-22a4 4 0 0 1 -4-4v-2h2.13a3.992 3.992 0 0 0 3.87 3h21a4.941 4.941 0 0 0 3-1z" fill="#e59730"/><path d="m35 43v.58a1.424 1.424 0 0 1 -.05.42h-26.25a3.058 3.058 0 0 0 1.09.89l.76.39a3.284 3.284 0 0 0 2.9 0l1.61-.81a2.076 2.076 0 0 1 1.88 0l2.12 1.06a2.076 2.076 0 0 0 1.88 0l2.12-1.06a2.076 2.076 0 0 1 1.88 0l2.12 1.06a2.076 2.076 0 0 0 1.88 0l2.12-1.06a2.076 2.076 0 0 1 1.88 0 2.1 2.1 0 0 0 1.86.01 2.119 2.119 0 0 1 -1.91 1.21 2.163 2.163 0 0 1 -.95-.22 2.076 2.076 0 0 0 -1.88 0l-2.12 1.06a2.076 2.076 0 0 1 -1.88 0l-2.12-1.06a2.076 2.076 0 0 0 -1.88 0l-2.12 1.06a2.076 2.076 0 0 1 -1.88 0l-2.12-1.06a2.076 2.076 0 0 0 -1.88 0l-1.61.81a3.284 3.284 0 0 1 -2.9 0l-.76-.39a3.21 3.21 0 0 1 -1.79-2.89z" fill="#a1d51c"/></g></g></g><g id="Outline_copy" data-name="Outline copy"><g fill="#464a51"><path d="m48 54a4 4 0 1 0 -4 4 4 4 0 0 0 4-4zm-6 0a2 2 0 1 1 2 2 2 2 0 0 1 -2-2z"/><path d="m56.115 52.818a1 1 0 0 0 -1.126.855l-.862 6.327h-15.127a1 1 0 0 0 0 2h16a1 1 0 0 0 .991-.865l.981-7.191a1 1 0 0 0 -.857-1.126z"/><path d="m58.753 38.342a1 1 0 0 0 -.753-.342h-4.7l1.678-8.813a.98.98 0 0 0 0-.354l.461-2.146 1.493 2.489-1.202 5.645a1 1 0 0 0 .768 1.187 1.022 1.022 0 0 0 .211.022 1 1 0 0 0 .976-.79l1.292-6.031a.993.993 0 0 0 -.12-.724l-3-5a1 1 0 0 0 -1.835.3l-.822 3.815-3.833-1.533a1 1 0 0 0 -1.363.8l-.83 6.638-.667-.167-.507-6.418a1 1 0 0 0 -.26-.584l.2-2.575.951-.285 2.636 1.406a1 1 0 1 0 .942-1.764l-3-1.6a1 1 0 0 0 -.758-.076l-2 .6a1 1 0 0 0 -.71.878l-.124 1.546-1.172-1.173a1 1 0 0 0 -1.505.107l-1.2 1.6v-1a3 3 0 0 0 -3-3h-2v-1a3 3 0 0 0 -3-3h-5v-4.73l7.664-5.11a1 1 0 0 0 .277-1.387l-2.218-3.328a1 1 0 0 0 -1.387-.277l-9 6a2.993 2.993 0 0 0 -1.336 2.496v6.336h-5a3 3 0 0 0 -3 3v1h-2a3 3 0 0 0 -3 3v2c0 .02.6 5.268.6 5.268a1 1 0 0 0 .992.887.872.872 0 0 0 .114-.007 1 1 0 0 0 .88-1.106l-.466-4.042h7.88a1 1 0 0 0 0-2h-8v-1a1 1 0 0 1 1-1h26a1 1 0 0 1 1 1v1h-16a1 1 0 0 0 0 2h16.5l-.3.4a1 1 0 0 0 -.2.683l.3 3.605-.362-1.022a1 1 0 0 0 -.617-.612l-2.963-1.018a1 1 0 0 0 -1.27.621l-.541 1.573-.619-1.592a1 1 0 0 0 -.928-.638h-4a1 1 0 0 0 -.939 1.346l.623 1.689c-.228-.015-.453-.035-.684-.035h-10a10.949 10.949 0 0 0 -6.065 1.826 1 1 0 1 0 1.106 1.667 8.957 8.957 0 0 1 4.959-1.493h10a9.012 9.012 0 0 1 8.944 8h-27.888a8.945 8.945 0 0 1 1.438-3.959 1 1 0 0 0 -1.668-1.1 10.956 10.956 0 0 0 -1.826 6.059 1 1 0 0 0 1 1h.126a4.188 4.188 0 0 0 1.021 1.888 4.816 4.816 0 0 0 -.147 1.112 4.976 4.976 0 0 0 1.41 3.466 2.939 2.939 0 0 0 -1.226 3.534h-1.184a1 1 0 0 0 -1 1v2a5.006 5.006 0 0 0 5 5h3a1 1 0 0 0 0-2h-3a3 3 0 0 1 -3-3v-1h15.719l.5.624a1 1 0 0 0 1.562 0l3.7-4.624h3.519a1 1 0 0 1 0 2h-2.2a1 1 0 1 0 0 2h5.2v1a3 3 0 0 1 -3 3h-15a1 1 0 0 0 0 2h15a5.006 5.006 0 0 0 5-5v-2a1 1 0 0 0 -1-1h-1.184a2.939 2.939 0 0 0 -1.226-3.534 4.976 4.976 0 0 0 1.41-3.466 4.857 4.857 0 0 0 -.125-1.053 3.048 3.048 0 0 0 1.072-1.947h.053a.953.953 0 0 0 .184-.037 11 11 0 0 0 7.816 3.037c5.091 0 9.305-3.059 9.922-7h2.932l-1.324 9.708a1 1 0 0 0 .857 1.125.886.886 0 0 0 .135.01 1 1 0 0 0 .991-.865l1.478-10.843a1 1 0 0 0 -.238-.793zm-35.753-27.678a1 1 0 0 1 .445-.832l8.168-5.445 1.11 1.664-7.278 4.849a1 1 0 0 0 -.445.832v5.268h-2zm-8 10.336v-1a1 1 0 0 1 1-1h16a1 1 0 0 1 1 1v1zm30.932 14.264 2.021.5-.508 8.638a9.894 9.894 0 0 1 -2.05.5zm-3.824-9.741 1.924 1.924.457 5.711a.875.875 0 0 0 -.083.037 1 1 0 0 0 -.4.749l-.613 11.023a10.147 10.147 0 0 1 -2-.318l-1.365-16.349zm-13.673 5.477h1.881l.9 2.32a10.926 10.926 0 0 0 -2.263-.905zm4.534 15.69a2.689 2.689 0 0 1 .031.31 3 3 0 0 1 -3 3h-18a3 3 0 0 1 -2.987-2.876l.092.047a4.257 4.257 0 0 0 3.789 0l1.609-.8a1.108 1.108 0 0 1 .994 0l2.111 1.055a3.126 3.126 0 0 0 2.784 0l2.108-1.059a1.108 1.108 0 0 1 .994 0l2.111 1.055a3.126 3.126 0 0 0 2.784 0l2.111-1.055a1.108 1.108 0 0 1 .994 0 3.109 3.109 0 0 0 1.475.323zm-22.969 7.31a1 1 0 0 1 0-2h9.519l1.6 2zm14 .4-1.919-2.4h3.838zm9.473-9.87a1.064 1.064 0 0 1 -.114.053.157.157 0 0 0 -.023 0c-.013.005-.02.016-.033.021a1.077 1.077 0 0 1 -.911-.029 3.126 3.126 0 0 0 -2.784 0l-2.108 1.058a1.108 1.108 0 0 1 -.994 0l-2.111-1.055a3.126 3.126 0 0 0 -2.784 0l-2.111 1.055a1.108 1.108 0 0 1 -.994 0l-2.111-1.055a3.126 3.126 0 0 0 -2.784 0l-1.608.8a2.247 2.247 0 0 1 -2 0l-.767-.378a2.214 2.214 0 0 1 -.982-1h25.658a1.091 1.091 0 0 1 -.439.529zm3.451-2.779a10.921 10.921 0 0 0 -1.531-4.451l-1.34-4.289.605-1.763 1.561.537 2.738 7.732.359 4.306a6.965 6.965 0 0 1 -2.392-2.073zm12.587 1.588.489-8.28a1 1 0 0 0 -.756-1.029l-.112-.03.7-5.592 3.031 1.213-2.469 12.97a7.075 7.075 0 0 1 -.883.747z"/><circle cx="23" cy="38" r="1"/><circle cx="19" cy="37" r="1"/><circle cx="16" cy="39" r="1"/><circle cx="31" cy="39" r="1"/><circle cx="12" cy="38" r="1"/><circle cx="27" cy="37" r="1"/></g></g></g></svg>