<svg id="Capa_1" enable-background="new 0 0 512 512" height="24" viewBox="0 0 512 512" width="24" xmlns="http://www.w3.org/2000/svg"><g><g><g><g><path d="m15.5 504.5h90.975v-338.356h-68.975c-16.569 0-30 13.431-30 30v300.356c0 4.418 3.582 8 8 8z" fill="#f7f6f7"/></g><path d="m76.475 166.144h30v338.356h-30z" fill="#edebed"/><g><path d="m106.475 211.144h-45.975c-4.432 0-8.02 3.604-8 8.036l.167 36.93c.02 4.404 3.596 7.964 8 7.964h45.808z" fill="#bed8fb"/><path d="m106.475 309.074h-45.975c-4.432 0-8.02 3.604-8 8.036l.167 36.93c.02 4.404 3.596 7.964 8 7.964h45.808z" fill="#bed8fb"/><path d="m76.475 211.144h30v52.93h-30z" fill="#9dc6fb"/><path d="m76.475 309.074h30v52.93h-30z" fill="#9dc6fb"/><path d="m106.475 406.57h-45.975c-4.432 0-8.02 3.604-8 8.036l.167 36.93c.02 4.404 3.596 7.964 8 7.964h45.808z" fill="#bed8fb"/><path d="m76.475 406.57h30v52.93h-30z" fill="#9dc6fb"/></g></g><path d="m405.525 504.5h-75l-74.525-15-74.525 15h-75.475v-378.5c0-16.569 13.431-30 30-30h239.525c16.569 0 30 13.431 30 30z" fill="#f7f6f7"/><path d="m375.525 96h-30c16.569 0 30 13.432 30 30v378.5h30v-378.5c0-16.568-13.432-30-30-30z" fill="#edebed"/><g><circle cx="256" cy="96" fill="#dd636e" r="88.5"/><path d="m256 7.5c-5.112 0-10.123.441-15 1.277 41.68 7.146 73.5 43.536 73.5 87.223s-31.82 80.076-73.5 87.223c4.877.836 9.888 1.277 15 1.277 48.799 0 88.5-39.701 88.5-88.5s-39.701-88.5-88.5-88.5z" fill="#da4a54"/><path d="m308.5 81h-34.5c-1.657 0-3-1.343-3-3v-34.5c0-3.314-2.686-6-6-6h-18c-3.314 0-6 2.686-6 6v34.5c0 1.657-1.343 3-3 3h-34.5c-3.314 0-6 2.686-6 6v18c0 3.314 2.686 6 6 6h34.5c1.657 0 3 1.343 3 3v34.5c0 3.314 2.686 6 6 6h18c3.314 0 6-2.686 6-6v-34.5c0-1.657 1.343-3 3-3h34.5c3.314 0 6-2.686 6-6v-18c0-3.314-2.686-6-6-6z" fill="#fff"/></g><path d="m181.475 357.426h149.049v147.074h-149.049z" fill="#655e67"/><path d="m300.525 357.426h30v147.074h-30z" fill="#544f56"/><path d="m225.5 282.43h-66.464c-4.432 0-8.02-3.604-8-8.036l.167-36.93c.02-4.404 3.596-7.964 8-7.964h66.297c4.418 0 8 3.582 8 8v36.93c0 4.418-3.582 8-8 8z" fill="#bed8fb"/><path d="m225.5 229.5h-30c4.418 0 8 3.582 8 8v36.93c0 4.418-3.582 8-8 8h30c4.418 0 8-3.582 8-8v-36.93c0-4.418-3.582-8-8-8z" fill="#9dc6fb"/><path d="m286.5 229.5h66.224c4.432 0 8.02 3.604 8 8.036l-.167 36.93c-.02 4.404-3.596 7.964-8 7.964h-66.057c-4.418 0-8-3.582-8-8v-36.93c0-4.418 3.582-8 8-8z" fill="#bed8fb"/><path d="m352.724 229.5h-30c4.432 0 8.02 3.604 8 8.036l-.167 36.93c-.02 4.404-3.596 7.964-8 7.964h30c4.404 0 7.98-3.56 8-7.964l.167-36.93c.02-4.432-3.568-8.036-8-8.036z" fill="#9dc6fb"/><g><g><path d="m496.5 504.5h-90.975v-338.356h68.975c16.569 0 30 13.431 30 30v300.356c0 4.418-3.582 8-8 8z" fill="#f7f6f7"/></g><path d="m474.5 166.144h-30c16.569 0 30 13.432 30 30v300.356c0 4.418-3.582 8-8 8h30c4.418 0 8-3.582 8-8v-300.356c0-16.569-13.431-30-30-30z" fill="#edebed"/><g fill="#bed8fb"><path d="m405.525 211.144h45.975c4.432 0 8.02 3.604 8 8.036l-.167 36.93c-.02 4.404-3.596 7.964-8 7.964h-45.808"/><path d="m405.525 309.074h45.975c4.432 0 8.02 3.604 8 8.036l-.167 36.93c-.02 4.404-3.596 7.964-8 7.964h-45.808z"/><path d="m405.525 406.57h45.975c4.432 0 8.02 3.604 8 8.036l-.167 36.93c-.02 4.404-3.596 7.964-8 7.964h-45.808z"/></g></g><path d="m339.525 327.426h-167.05c-3.314 0-6 2.686-6 6v18c0 3.314 2.686 6 6 6h167.049c3.314 0 6-2.686 6-6v-18c.001-3.313-2.686-6-5.999-6z" fill="#8b808e"/><path d="m339.525 327.426h-30c3.314 0 6 2.687 6 6v18c0 3.314-2.686 6-6 6h30c3.314 0 6-2.686 6-6v-18c0-3.313-2.687-6-6-6z" fill="#766d78"/></g><path d="m474.5 158.644h-33.976c-4.142 0-7.5 3.358-7.5 7.5s3.358 7.5 7.5 7.5h33.976c12.407 0 22.5 10.093 22.5 22.5v300.356c0 .276-.224.5-.5.5h-83.48v-30h38.312c8.508 0 15.461-6.922 15.5-15.43l.168-36.93c.079-8.475-7.05-15.612-15.5-15.57h-38.48v-29.566h38.312c8.508 0 15.461-6.921 15.5-15.429l.168-36.931c.079-8.475-7.05-15.611-15.5-15.57h-38.48v-30h38.312c8.508 0 15.461-6.922 15.5-15.43l.168-36.931c.079-8.474-7.05-15.611-15.5-15.57h-38.48v-77.643c0-20.678-16.822-37.5-37.5-37.5h-23.812c-3.838-49.443-45.297-88.5-95.708-88.5s-91.87 39.057-95.708 88.5h-24.292c-20.678 0-37.5 16.822-37.5 37.5v32.644h-61c-20.678 0-37.5 16.822-37.5 37.5v300.356c0 8.547 6.953 15.5 15.5 15.5h481c8.547 0 15.5-6.953 15.5-15.5v-300.356c0-20.678-16.822-37.5-37.5-37.5zm-61.48 60h38.48c.051 0 .208 0 .354.147s.146.303.146.354l-.167 36.93c-.001.275-.226.498-.5.498h-38.313zm0 97.93h38.48c.051 0 .208 0 .354.147s.146.304.146.355l-.167 36.93c-.001.274-.226.498-.5.498h-38.313zm0 97.496h38.48c.051 0 .208 0 .354.147s.146.304.146.355l-.167 36.93c-.001.274-.226.498-.5.498h-38.313zm-314.52 37.93h-37.83c-.279 0-.499-.217-.5-.495l-.17-36.929c0-.053-.001-.212.146-.359.146-.147.303-.147.354-.147h38zm0-97.5h-37.83c-.279 0-.499-.217-.5-.495l-.17-36.929c0-.052-.001-.208.148-.358.147-.148.301-.148.352-.148h38zm0-97.93h-37.83c-.279 0-.499-.217-.5-.495l-.17-36.929c0-.052-.001-.208.148-.358.147-.148.301-.148.352-.148h38zm0-52.93h-38c-8.481-.047-15.575 7.11-15.5 15.575l.17 36.929c.039 8.506 6.992 15.426 15.5 15.426h37.83v30h-38c-8.481-.047-15.575 7.111-15.5 15.575l.17 36.93c.039 8.506 6.992 15.426 15.5 15.426h37.83v29.57h-38c-8.486-.047-15.575 7.105-15.5 15.575l.17 36.93c.038 8.504 6.992 15.424 15.5 15.424h37.83v30h-83c-.276 0-.5-.224-.5-.5v-300.356c0-12.407 10.093-22.5 22.5-22.5h61zm157.5-188.64c44.664 0 81 36.336 81 81s-36.336 81-81 81-81-36.336-81-81 36.336-81 81-81zm67.024 482h-59.524v-132.074h59.524zm-149.048-147.074v-15h164.049v15zm224.044 147.074h-59.996v-132.074c7.829.454 15.05-5.272 15-13.5v-18c0-7.444-6.056-13.5-13.5-13.5h-167.048c-7.444 0-13.5 6.056-13.5 13.5v18c-.053 7.882 7.039 14.32 15 13.5v53.109c0 4.142 3.358 7.5 7.5 7.5s7.5-3.358 7.5-7.5v-53.109h59.524v132.074h-59.524v-43.965c0-4.142-3.358-7.5-7.5-7.5s-7.5 3.358-7.5 7.5v43.965h-60.476v-371c0-12.407 10.093-22.5 22.5-22.5h24.292c3.838 49.443 45.297 88.5 95.708 88.5s91.87-39.057 95.708-88.5h23.812c12.407 0 22.5 10.093 22.5 22.5zm-164.52-378.5v30c0 7.444 6.056 13.5 13.5 13.5h18c7.444 0 13.5-6.056 13.5-13.5v-30h30c7.444 0 13.5-6.056 13.5-13.5v-18c0-7.444-6.056-13.5-13.5-13.5h-30v-30c0-7.444-6.056-13.5-13.5-13.5h-18c-7.444 0-13.5 6.056-13.5 13.5v30h-30c-7.444 0-13.5 6.056-13.5 13.5v18c0 7.444 6.056 13.5 13.5 13.5zm-28.5-30h33c5.79 0 10.5-4.71 10.5-10.5v-33h15v33c0 5.79 4.71 10.5 10.5 10.5h33v15h-33c-5.79 0-10.5 4.71-10.5 10.5v33h-15v-33c0-5.79-4.71-10.5-10.5-10.5h-33zm21 357.639c4.142 0 7.5-3.358 7.5-7.5v-15.351c0-4.142-3.358-7.5-7.5-7.5s-7.5 3.358-7.5 7.5v15.351c0 4.142 3.358 7.5 7.5 7.5zm-.5-224.139h-66.296c-8.509 0-15.462 6.922-15.5 15.43l-.167 36.929c-.09 8.432 7.032 15.619 15.5 15.571h66.463c8.547 0 15.5-6.953 15.5-15.5v-36.93c0-8.547-6.953-15.5-15.5-15.5zm.5 52.43c0 .276-.224.5-.5.5h-66.464c-.199.026-.527-.303-.5-.502l.167-36.931c.001-.274.225-.497.5-.497h66.297c.276 0 .5.224.5.5zm60 171.709c4.142 0 7.5-3.358 7.5-7.5v-15.351c0-4.142-3.358-7.5-7.5-7.5s-7.5 3.358-7.5 7.5v15.351c0 4.142 3.358 7.5 7.5 7.5zm66.724-224.139h-66.224c-8.547 0-15.5 6.953-15.5 15.5v36.93c0 8.547 6.953 15.5 15.5 15.5h66.056c8.508 0 15.461-6.922 15.5-15.43l.167-36.931c.08-8.473-7.05-15.61-15.499-15.569zm.332 52.432c-.001.274-.226.498-.5.498h-66.056c-.276 0-.5-.224-.5-.5v-36.93c0-.276.224-.5.5-.5h66.224c.051 0 .208 0 .354.147s.146.303.146.354z"/></g></svg>