<svg id="Layer_1" enable-background="new 0 0 512 512" height="24" viewBox="0 0 512 512" width="24" xmlns="http://www.w3.org/2000/svg"><g><g><g fill="#407093"><path d="m128.5 115.078h30v42.422h-30z"/><path d="m353.5 115.078h30v42.422h-30z"/></g><path d="m391.765 115.078h-271.53c-16.569 0-30-13.431-30-30v-47.578c0-16.569 13.431-30 30-30h271.529c16.569 0 30 13.431 30 30v47.578c.001 16.568-13.431 30-29.999 30z" fill="#eaf6ff"/><path d="m391.765 7.5h-30c16.568 0 30 13.432 30 30v47.578c0 16.568-13.432 30-30 30h30c16.568 0 30-13.432 30-30v-47.578c0-16.568-13.432-30-30-30z" fill="#d8ecfe"/><path d="m482 459.421h-452v-284.343c0-16.569 13.431-30 30-30h392c16.569 0 30 13.431 30 30z" fill="#eaf6ff"/><path d="m452 145.078h-30c16.569 0 30 13.431 30 30v284.343h30v-284.343c0-16.569-13.431-30-30-30z" fill="#d8ecfe"/><path d="m314.176 459.421h-116.352v-132.171c0-5.523 4.477-10 10-10h96.352c5.523 0 10 4.477 10 10z" fill="#b3dafe"/><path d="m304.176 317.25h-30c5.523 0 10 4.477 10 10v132.172h30v-132.172c0-5.523-4.477-10-10-10z" fill="#8ac9fe"/><path d="m195.617 287.25h120.883c3.866 0 7-3.134 7-7v-98.172c0-3.866-3.134-7-7-7h-120.883c-3.866 0-7 3.134-7 7v98.172c0 3.866 3.134 7 7 7z" fill="#b3dafe"/><path d="m316.5 175.078h-30c3.866 0 7 3.134 7 7v98.171c0 3.866-3.134 7-7 7h30c3.866 0 7-3.134 7-7v-98.171c0-3.866-3.134-7-7-7z" fill="#8ac9fe"/><g><path d="m360.5 287.25h84.5c3.866 0 7-3.134 7-7v-98.172c0-3.866-3.134-7-7-7h-84.5c-3.866 0-7 3.134-7 7v98.172c0 3.866 3.134 7 7 7z" fill="#b3dafe"/><path d="m445 175.078h-30c3.866 0 7 3.134 7 7v98.171c0 3.866-3.134 7-7 7h30c3.866 0 7-3.134 7-7v-98.171c0-3.866-3.134-7-7-7z" fill="#8ac9fe"/></g><g><path d="m360.5 429.421h84.5c3.866 0 7-3.134 7-7v-98.171c0-3.866-3.134-7-7-7h-84.5c-3.866 0-7 3.134-7 7v98.172c0 3.865 3.134 6.999 7 6.999z" fill="#b3dafe"/><path d="m445 317.25h-30c3.866 0 7 3.134 7 7v98.171c0 3.866-3.134 7-7 7h30c3.866 0 7-3.134 7-7v-98.171c0-3.866-3.134-7-7-7z" fill="#8ac9fe"/></g><g><path d="m67 287.25h84.5c3.866 0 7-3.134 7-7v-98.172c0-3.866-3.134-7-7-7h-84.5c-3.866 0-7 3.134-7 7v98.172c0 3.866 3.134 7 7 7z" fill="#b3dafe"/><path d="m151.5 175.078h-30c3.866 0 7 3.134 7 7v98.171c0 3.866-3.134 7-7 7h30c3.866 0 7-3.134 7-7v-98.171c0-3.866-3.134-7-7-7z" fill="#8ac9fe"/></g><g><path d="m67 429.421h84.5c3.866 0 7-3.134 7-7v-98.171c0-3.866-3.134-7-7-7h-84.5c-3.866 0-7 3.134-7 7v98.172c0 3.865 3.134 6.999 7 6.999z" fill="#b3dafe"/><path d="m151.5 317.25h-30c3.866 0 7 3.134 7 7v98.171c0 3.866-3.134 7-7 7h30c3.866 0 7-3.134 7-7v-98.171c0-3.866-3.134-7-7-7z" fill="#8ac9fe"/></g><path d="m494.5 504.5h-477c-5.523 0-10-4.477-10-10v-25.079c0-5.523 4.477-10 10-10h477c5.523 0 10 4.477 10 10v25.079c0 5.523-4.477 10-10 10z" fill="#407093"/><path d="m494.5 459.421h-30c5.523 0 10 4.477 10 10v25.079c0 5.523-4.477 10-10 10h30c5.523 0 10-4.477 10-10v-25.079c0-5.523-4.477-10-10-10z" fill="#365e7d"/></g><path d="m368.399 92.471c.53.09.88.15 6.296.15 2.568 0 6.277-.014 11.683-.043 4.142-.023 7.48-3.4 7.458-7.542-.023-4.128-3.377-7.458-7.499-7.458h-.043c-3.096.018-6.353.03-9.133.036v-40.114c0-4.142-3.357-7.5-7.5-7.5s-7.5 3.358-7.5 7.5v47.578c0 3.655 2.635 6.778 6.238 7.393zm-124.665-31.162c0-17.264-14.045-31.309-31.309-31.309s-31.31 14.045-31.31 31.309 14.046 31.309 31.31 31.309 31.309-14.045 31.309-31.309zm-47.618 0c0-8.993 7.316-16.309 16.31-16.309 8.992 0 16.309 7.316 16.309 16.309s-7.316 16.309-16.309 16.309-16.31-7.316-16.31-16.309zm123.664 31.309h19.881c4.143 0 7.5-3.358 7.5-7.5s-3.357-7.5-7.5-7.5h-12.381v-8.592h10.915c4.143 0 7.5-3.358 7.5-7.5s-3.357-7.5-7.5-7.5h-10.915v-8.592h12.381c4.143 0 7.5-3.358 7.5-7.5s-3.357-7.5-7.5-7.5h-19.881c-4.143 0-7.5 3.358-7.5 7.5v47.184c0 4.142 3.358 7.5 7.5 7.5zm-161.164-62.618c-4.143 0-7.5 3.358-7.5 7.5v15.492h-17.952v-15.492c0-4.142-3.357-7.5-7.5-7.5s-7.5 3.358-7.5 7.5v47.618c0 4.142 3.357 7.5 7.5 7.5s7.5-3.358 7.5-7.5v-17.126h17.952v17.126c0 4.142 3.357 7.5 7.5 7.5s7.5-3.358 7.5-7.5v-47.618c0-4.142-3.357-7.5-7.5-7.5zm104.866 15h5.596v40.118c0 4.142 3.357 7.5 7.5 7.5s7.5-3.358 7.5-7.5v-40.118h5.702c4.143 0 7.5-3.358 7.5-7.5s-3.357-7.5-7.5-7.5h-26.298c-4.143 0-7.5 3.358-7.5 7.5s3.358 7.5 7.5 7.5zm97.018 391.921h84.5c7.995 0 14.5-6.505 14.5-14.5v-98.171c0-7.995-6.505-14.5-14.5-14.5h-84.5c-7.995 0-14.5 6.505-14.5 14.5v98.172c0 7.995 6.505 14.499 14.5 14.499zm49.75-112.171h34.25v41.086h-34.25zm0 56.085h34.25v41.086h-34.25zm-49.25-56.085h34.25v41.086h-34.25zm0 56.085h34.25v41.086h-34.25zm133.5 71.086h-5v-276.843c0-20.678-16.822-37.5-37.5-37.5h-61v-15h.765c20.678 0 37.5-16.822 37.5-37.5v-47.578c0-20.678-16.822-37.5-37.5-37.5h-271.53c-20.678 0-37.5 16.822-37.5 37.5v47.578c0 20.678 16.822 37.5 37.5 37.5h.765v15h-61c-20.678 0-37.5 16.822-37.5 37.5v276.843h-5c-9.649 0-17.5 7.851-17.5 17.5v25.079c0 9.649 7.851 17.5 17.5 17.5h477c9.649 0 17.5-7.851 17.5-17.5v-25.079c0-9.649-7.851-17.5-17.5-17.5zm-374.265-344.343c-12.406 0-22.5-10.093-22.5-22.5v-47.578c0-12.407 10.094-22.5 22.5-22.5h271.529c12.406 0 22.5 10.093 22.5 22.5v47.578c0 12.407-10.094 22.5-22.5 22.5h-157.934c-4.143 0-7.5 3.358-7.5 7.5s3.357 7.5 7.5 7.5h112.17v15h-180v-15h32.83c4.143 0 7.5-3.358 7.5-7.5s-3.357-7.5-7.5-7.5zm255.765 15v15h-15v-15zm-225 0v15h-15v-15zm-113.5 52.5c0-12.407 10.094-22.5 22.5-22.5h392c12.406 0 22.5 10.093 22.5 22.5v276.843h-152.824v-40.436c0-4.142-3.357-7.5-7.5-7.5s-7.5 3.358-7.5 7.5v40.436h-43.176v-127.171h40.676c1.379 0 2.5 1.122 2.5 2.5v49.236c0 4.142 3.357 7.5 7.5 7.5s7.5-3.358 7.5-7.5v-49.236c0-9.649-7.851-17.5-17.5-17.5h-96.352c-9.649 0-17.5 7.851-17.5 17.5v124.672h-152.824zm211 149.672v127.172h-43.176v-124.672c0-1.378 1.121-2.5 2.5-2.5zm248.5 169.75c0 1.378-1.121 2.5-2.5 2.5h-477c-1.379 0-2.5-1.122-2.5-2.5v-25.079c0-1.378 1.121-2.5 2.5-2.5h477c1.379 0 2.5 1.122 2.5 2.5zm-180.5-199.75c7.995 0 14.5-6.505 14.5-14.5v-98.171c0-7.995-6.505-14.5-14.5-14.5h-120.884c-7.995 0-14.5 6.505-14.5 14.5v98.171c0 7.995 6.505 14.5 14.5 14.5zm-52.941-112.172h52.441v41.086h-52.441zm0 56.086h52.441v41.085h-52.441zm-67.443-56.086h52.442v41.086h-52.442zm0 56.086h52.442v41.085h-52.442zm-44.616 71.086h-84.5c-7.995 0-14.5 6.505-14.5 14.5v98.172c0 7.995 6.505 14.5 14.5 14.5h84.5c7.995 0 14.5-6.505 14.5-14.5v-98.172c0-7.996-6.505-14.5-14.5-14.5zm-49.75 112.171h-34.25v-41.086h34.25zm0-56.086h-34.25v-41.085h34.25zm49.25 56.086h-34.25v-41.086h34.25zm0-56.086h-34.25v-41.085h34.25zm209.5-71.085h84.5c7.995 0 14.5-6.505 14.5-14.5v-98.171c0-7.995-6.505-14.5-14.5-14.5h-84.5c-7.995 0-14.5 6.505-14.5 14.5v98.171c0 7.995 6.505 14.5 14.5 14.5zm49.75-112.172h34.25v41.085h-34.25zm0 56.086h34.25v41.086h-34.25zm-49.25-56.086h34.25v41.085h-34.25zm0 56.086h34.25v41.086h-34.25zm-209.5-71.086h-84.5c-7.995 0-14.5 6.505-14.5 14.5v98.171c0 7.995 6.505 14.5 14.5 14.5h84.5c7.995 0 14.5-6.505 14.5-14.5v-98.171c0-7.995-6.505-14.5-14.5-14.5zm-49.75 112.172h-34.25v-41.086h34.25zm0-56.086h-34.25v-41.085h34.25zm49.25 56.086h-34.25v-41.086h34.25zm0-56.086h-34.25v-41.085h34.25z"/></g></svg>