<svg height="25pt" viewBox="-43 0 502 502.17242" width="25pt" xmlns="http://www.w3.org/2000/svg"><path d="m208.085938 502.171875-147.070313-147.085937c-81.234375-81.230469-81.238281-212.929688-.007813-294.160157 81.226563-81.234375 212.929688-81.234375 294.160157 0 81.226562 81.230469 81.222656 212.929688-.007813 294.160157zm0 0" fill="#aed581"/><path d="m304.085938 320.011719h-192v-144l96-84.128907 96 84.128907zm0 0" fill="#a1887f"/><path d="m208.085938 91.882812-96 84.128907v68.128906l96-84.128906 96 84.128906v-68.128906zm0 0" fill="#8d6e63"/><path d="m326.679688 220.042969-118.59375-103.902344-118.589844 103.902344-21.089844-24.0625 139.679688-122.382813 139.679687 122.382813zm0 0" fill="#e5e5e5"/><g fill="#fff"><path d="m160.085938 224.011719h32v32h-32zm0 0"/><path d="m224.085938 224.011719h32v32h-32zm0 0"/></g></svg>