<svg id="Capa_1" enable-background="new 0 0 512 512" height="32" viewBox="0 0 512 512" width="32" xmlns="http://www.w3.org/2000/svg"><g><g><path d="m316.183 238.625h145.508c23.641 0 42.806-19.165 42.806-42.806v-145.509c0-23.641-19.165-42.806-42.806-42.806h-145.508c-23.641 0-42.806 19.165-42.806 42.806v145.508c-.001 23.641 19.164 42.807 42.806 42.807z" fill="#6bbef6"/><path d="m343.116 238.618h-26.94c-23.64 0-42.8-19.16-42.8-42.8v-145.508c0-23.64 19.16-42.81 42.8-42.81h26.94c-23.64 0-42.81 19.17-42.81 42.81v145.509c0 23.64 19.17 42.799 42.81 42.799z" fill="#5ea5ec"/><g><path d="m397.96 36.003h-42.55c-3.113 0-6.22.609-9.022 1.965-7.259 3.513-11.546 10.714-11.521 18.347v138.932c0 8.216 6.661 14.877 14.877 14.877h10.741c8.216 0 14.877-6.661 14.877-14.877v-31.822c8.364-.042 17.359-.08 22.598-.08 35.577 0 64.521-28.563 64.521-63.671s-28.944-63.671-64.521-63.671zm0 86.847c-5.223 0-14.1.037-22.41.079-.043-8.62-.081-17.902-.081-23.254 0-4.579-.022-14.166-.047-23.176h22.538c13.023 0 24.026 10.613 24.026 23.176s-11.003 23.175-24.026 23.175z" fill="#f6f9f9"/></g><path d="m345.687 272.821h-315.585c-12.028 0-21.778-9.75-21.778-21.778 0-12.028 9.75-21.778 21.778-21.778h315.586c12.028 0 21.778 9.75 21.778 21.778-.001 12.027-9.751 21.778-21.779 21.778z" fill="#dd636e"/><path d="m277.579 185.006h-179.369c-8.786 0-16.133 6.677-16.971 15.423l-10.564 110.277h234.44l-10.565-110.277c-.838-8.746-8.185-15.423-16.971-15.423z" fill="#f6f9f9"/><path d="m149.434 310.704h-78.759l10.56-110.279c.84-8.74 8.19-15.42 16.97-15.42h72.66c-25.21 0-46.3 19.16-48.7 44.26l-4.46 46.53c-1.791 18.719 12.919 34.909 31.729 34.909z" fill="#e7ecf6"/><path d="m313.814 208.91c-3.99-25.62-26.04-44.51-51.97-44.51h-147.899c-25.93 0-47.98 18.89-51.97 44.51l-20.23 130.069h292.298zm-237.039 100.069 14.85-95.459c1.72-11.08 11.11-19.12 22.32-19.12h147.899c11.21 0 20.6 8.04 22.32 19.12l14.85 95.459z" fill="#dd636e"/><path d="m113.945 164.4c-25.93 0-47.98 18.89-51.97 44.51l-20.23 130.069h19.95l20.23-130.069c3.99-25.62 26.04-44.51 51.97-44.51z" fill="#da4a54"/><path d="m73.334 504.257c-15.794 0-28.597-12.803-28.597-28.597v-28.597l22.466-27.272 34.729 27.272v28.597c-.001 15.794-12.804 28.597-28.598 28.597z" fill="#30579d"/><path d="m82.806 502.64c-2.96 1.04-6.15 1.61-9.47 1.61-15.8 0-28.6-12.8-28.6-28.59v-28.6l22.47-27.27 11.49 9.02-15.03 18.25v28.6c0 12.48 8 23.08 19.14 26.98z" fill="#26457d"/><path d="m299.462 504.257c-15.794 0-28.597-12.803-28.597-28.597v-28.597l37.722-27.272 19.473 27.272v28.597c0 15.794-12.804 28.597-28.598 28.597z" fill="#30579d"/><path d="m308.935 502.64c-2.96 1.04-6.15 1.61-9.47 1.61-15.8 0-28.6-12.8-28.6-28.59v-28.6l22.47-27.27 11.49 9.02-15.03 18.25v28.6c0 12.48 8 23.08 19.14 26.98z" fill="#26457d"/><path d="m308.587 291.277h-241.385c-32.793 0-59.377 26.584-59.377 59.377v9.758c0 32.793 26.584 59.377 59.377 59.377h241.385c32.793 0 59.377-26.584 59.377-59.377v-9.758c0-32.792-26.584-59.377-59.377-59.377z" fill="#dd636e"/><path d="m118.082 419.787h-50.88c-32.8 0-59.38-26.58-59.38-59.38v-9.75c0-32.8 26.58-59.38 59.38-59.38h50.88c-32.8 0-59.38 26.58-59.38 59.38v9.75c0 32.8 26.58 59.38 59.38 59.38z" fill="#da4a54"/><path d="m345.362 401.858h-314.935c-12.483 0-22.602 10.119-22.602 22.602 0 12.483 10.119 22.602 22.602 22.602h314.935c12.483 0 22.602-10.119 22.602-22.602 0-12.483-10.119-22.602-22.602-22.602z" fill="#f6f9f9"/><path d="m64.324 440.44c4.09 4.09 9.74 6.62 15.98 6.62h-49.88c-6.24 0-11.89-2.53-15.98-6.62s-6.62-9.74-6.62-15.98c0-12.48 10.12-22.6 22.6-22.6h49.88c-12.48 0-22.6 10.12-22.6 22.6 0 6.24 2.53 11.89 6.62 15.98z" fill="#e7ecf6"/><g><path d="m65.04 380.871c-9.183 0-16.627-7.444-16.627-16.627v-27.61c0-9.183 7.444-16.627 16.627-16.627 9.183 0 16.627 7.444 16.627 16.627v27.61c0 9.183-7.444 16.627-16.627 16.627z" fill="#f6f9f9"/><path d="m310.749 380.871c-9.183 0-16.627-7.444-16.627-16.627v-27.61c0-9.183 7.444-16.627 16.627-16.627 9.183 0 16.627 7.444 16.627 16.627v27.61c0 9.183-7.444 16.627-16.627 16.627z" fill="#f6f9f9"/><g fill="#e7ecf6"><path d="m318.172 379.124c-2.23 1.12-4.75 1.75-7.42 1.75-9.18 0-16.63-7.44-16.63-16.63v-27.61c0-9.18 7.45-16.62 16.63-16.62 2.67 0 5.19.63 7.42 1.75-5.46 2.72-9.21 8.36-9.21 14.87v27.61c0 6.52 3.75 12.16 9.21 14.88z"/><path d="m72.463 379.124c-2.23 1.12-4.75 1.75-7.42 1.75-9.18 0-16.63-7.44-16.63-16.63v-27.61c0-9.18 7.45-16.62 16.63-16.62 2.67 0 5.19.63 7.42 1.75-5.46 2.72-9.21 8.36-9.21 14.87v27.61c0 6.52 3.75 12.16 9.21 14.88z"/></g></g></g><g><path d="m476.46 243.502c.858 0 1.732-.148 2.585-.462 19.71-7.241 32.954-26.217 32.954-47.22v-145.51c0-27.741-22.569-50.31-50.31-50.31h-145.51c-27.736 0-50.3 22.569-50.3 50.31v106.737c-1.335-.087-2.678-.147-4.035-.147h-147.899c-29.818 0-54.791 21.388-59.38 50.857l-2.179 14.007h-22.287c-7.82 0-15.172 3.046-20.703 8.577s-8.577 12.883-8.577 20.703c0 16.145 13.135 29.28 29.28 29.28h13.177l-1.308 8.408c-24.399 9.981-41.64 33.969-41.64 61.921v9.76c0 14.367 4.507 28.034 12.838 39.41-7.755 5.45-12.838 14.458-12.838 24.636 0 8.04 3.131 15.598 8.817 21.283 5.685 5.686 13.244 8.817 21.283 8.817h6.807v21.1c0 7.979 2.607 15.358 7.007 21.34h-36.741c-4.142 0-7.5 3.358-7.5 7.5s3.358 7.5 7.5 7.5h496.997c4.142 0 7.5-3.358 7.5-7.5s-3.358-7.5-7.5-7.5h-108.061v-250.879h50.252c4.142 0 7.5-3.358 7.5-7.5s-3.358-7.5-7.5-7.5h-79.573c-5.35-5.75-12.974-9.356-21.429-9.356h-22.284l-2.179-14.009c-3.567-22.902-19.449-40.917-40.345-47.811v-109.634c0-19.47 15.835-35.31 35.3-35.31h145.51c19.47 0 35.31 15.84 35.31 35.31v145.51c0 14.74-9.294 28.058-23.126 33.14-3.888 1.428-5.882 5.738-4.454 9.626 1.115 3.035 3.986 4.916 7.041 4.916zm-446.361 21.822c-7.874 0-14.28-6.406-14.28-14.28 0-3.813 1.486-7.399 4.183-10.097 2.698-2.698 6.284-4.183 10.097-4.183h19.953l-4.443 28.56zm-14.77 95.09v-9.76c0-28.606 23.269-51.879 51.87-51.879h241.389c28.606 0 51.879 23.273 51.879 51.879v9.76c0 12.651-4.509 24.6-12.748 34.046-.782-.06-1.568-.099-2.36-.099h-314.93c-.792 0-1.574.04-2.351.101-8.239-9.447-12.749-21.397-12.749-34.048zm267.689-76.64c-1.907-25.233-23.033-45.185-48.745-45.185-25.713 0-46.839 19.952-48.746 45.185h-97.244l10.753-69.104c1.148-7.4 7.418-12.77 14.909-12.77h147.899c7.49 0 13.76 5.371 14.909 12.773l10.753 69.101zm-15.052 0h-67.387c1.857-16.951 16.256-30.185 33.694-30.185 17.437 0 31.836 13.234 33.693 30.185zm-173.535 170.788v21.097c0 11.633-9.464 21.097-21.097 21.097-11.633 0-21.097-9.464-21.097-21.097v-21.097zm15 21.098v-21.1h13.268c4.142 0 7.5-3.358 7.5-7.5s-3.358-7.5-7.5-7.5h-92.27c-4.033 0-7.824-1.571-10.677-4.424-2.853-2.852-4.423-6.644-4.423-10.676 0-8.326 6.774-15.1 15.1-15.1h314.93c4.039 0 7.834 1.571 10.687 4.423 2.853 2.853 4.423 6.645 4.423 10.677 0 8.326-6.778 15.1-15.11 15.1h-192.66c-4.142 0-7.5 3.358-7.5 7.5s3.358 7.5 7.5 7.5h110.666v21.1c0 7.979 2.607 15.358 7.007 21.34h-167.948c4.401-5.982 7.007-13.361 7.007-21.34zm211.129 0c0 11.633-9.464 21.097-21.098 21.097-11.633 0-21.097-9.464-21.097-21.097v-21.097h42.195zm60.877-229.54v250.88h-52.884c4.4-5.982 7.007-13.361 7.007-21.34v-21.1h9.799c16.603 0 30.11-13.503 30.11-30.1 0-8.039-3.131-15.597-8.817-21.283-1.251-1.25-2.597-2.37-4.014-3.367 8.325-11.373 12.828-25.035 12.828-39.396v-9.76c0-27.952-17.244-51.941-41.647-61.922l-1.308-8.408h13.175c7.82 0 15.172-3.046 20.703-8.577s8.577-12.884 8.577-20.703c0-1.679-.15-3.322-.422-4.924zm-35.75-9.356c7.874 0 14.28 6.406 14.28 14.28 0 3.813-1.486 7.399-4.183 10.097-2.698 2.698-6.283 4.183-10.097 4.183h-15.508l-4.442-28.56zm-39.284-26.701 11.571 74.383c-3.069-.433-6.199-.672-9.386-.672h-5.902l-11.111-71.405c-2.291-14.758-14.794-25.469-29.731-25.469h-147.899c-14.937 0-27.44 10.711-29.73 25.467l-11.112 71.407h-5.904c-3.186 0-6.315.239-9.383.672l11.57-74.381c3.444-22.114 22.184-38.165 44.559-38.165h147.899c22.375 0 41.115 16.051 44.559 38.163z"/><path d="m397.96 28.503h-42.55c-4.434 0-8.568.913-12.29 2.714-9.752 4.719-15.789 14.345-15.754 25.098v138.932c0 12.339 10.038 22.377 22.377 22.377h10.742c12.339 0 22.377-10.038 22.377-22.377v-24.357c5.872-.026 11.415-.045 15.098-.045 39.713 0 72.021-31.927 72.021-71.171s-32.308-71.171-72.021-71.171zm0 127.342c-5.248 0-14.258.038-22.635.08-4.127.021-7.462 3.373-7.462 7.5v31.822c0 4.068-3.309 7.377-7.377 7.377h-10.742c-4.068 0-7.377-3.309-7.377-7.377v-138.955c-.016-4.955 2.777-9.389 7.289-11.572 1.644-.796 3.634-1.216 5.755-1.216h42.549c31.442 0 57.021 25.198 57.021 56.171s-25.579 56.17-57.021 56.17z"/><path d="m397.96 68.999h-22.538c-1.993 0-3.903.793-5.311 2.204s-2.195 3.324-2.189 5.316c.024 9.001.085 37.813.128 46.447.01 1.989.81 3.893 2.223 5.292 1.405 1.391 3.301 2.17 5.277 2.17h.038c8.296-.042 17.158-.079 22.372-.079 17.089 0 31.526-14.048 31.526-30.676s-14.437-30.674-31.526-30.674zm0 46.351c-3.668 0-9.135.018-14.945.044-.027-6.125-.058-24.959-.073-31.395h15.018c8.804 0 16.526 7.325 16.526 15.676s-7.723 15.675-16.526 15.675z"/><path d="m65.04 388.372c13.304 0 24.127-10.823 24.127-24.127v-27.61c0-13.304-10.823-24.127-24.127-24.127s-24.127 10.823-24.127 24.127v27.61c0 13.303 10.823 24.127 24.127 24.127zm-9.127-51.737c0-5.033 4.094-9.127 9.127-9.127s9.127 4.094 9.127 9.127v27.61c0 5.033-4.094 9.127-9.127 9.127s-9.127-4.094-9.127-9.127z"/><path d="m310.749 388.372c13.304 0 24.127-10.823 24.127-24.127v-27.61c0-13.304-10.823-24.127-24.127-24.127s-24.127 10.823-24.127 24.127v27.61c0 13.303 10.824 24.127 24.127 24.127zm-9.127-51.737c0-5.033 4.094-9.127 9.127-9.127s9.127 4.094 9.127 9.127v27.61c0 5.033-4.094 9.127-9.127 9.127s-9.127-4.094-9.127-9.127z"/><path d="m122.551 346.163h130.688c4.142 0 7.5-3.358 7.5-7.5s-3.358-7.5-7.5-7.5h-130.688c-4.142 0-7.5 3.358-7.5 7.5s3.357 7.5 7.5 7.5z"/><path d="m122.551 373.035h130.688c4.142 0 7.5-3.358 7.5-7.5s-3.358-7.5-7.5-7.5h-130.688c-4.142 0-7.5 3.358-7.5 7.5s3.357 7.5 7.5 7.5z"/></g></g></svg>