<svg height="16pt" viewBox="0 -48 512 512" width="16pt" xmlns="http://www.w3.org/2000/svg"><g fill="#40404c"><path d="m211.023438 137.027344h89.949218v145.9375h-89.949218zm0 0"/><path d="m298.300781 72.402344v-20.191406c0-24.636719 19.972657-44.609376 44.613281-44.609376 9.027344 0 17.613282 2.726563 24.808594 7.527344 7.183594 4.816406 12.980469 11.71875 16.425782 20.066406l7.207031 17.472657"/><path d="m279.289062 123.621094v171.839844l128.757813-23.5625 89.082031-16.308594-66.785156-161.898438c-6.0625-14.691406-16.257812-26.835937-28.90625-35.308594-12.65625-8.460937-27.757812-13.253906-43.65625-13.253906-1.339844 0-2.667969.03125-3.984375.101563-41.5 2.066406-74.507813 36.382812-74.507813 78.390625zm0 0"/></g><path d="m353.796875 45.230469 54.25 226.667969 89.082031-16.308594-66.785156-161.898438c-6.0625-14.691406-16.257812-26.835937-28.90625-35.308594-12.65625-8.460937-27.757812-13.253906-43.65625-13.253906-1.339844 0-2.667969.03125-3.984375.101563zm0 0" fill="#5b5b68"/><path d="m504.398438 295.457031c0 62.164063-50.394532 112.558594-112.558594 112.558594-62.164063 0-112.554688-50.394531-112.554688-112.558594 0-62.164062 50.390625-112.558593 112.554688-112.558593 62.164062 0 112.558594 50.394531 112.558594 112.558593zm0 0" fill="#e4e4ef"/><path d="m471.433594 295.457031c0 43.957031-35.636719 79.589844-79.59375 79.589844-43.953125 0-79.589844-35.632813-79.589844-79.589844s35.636719-79.589843 79.589844-79.589843c43.957031 0 79.59375 35.632812 79.59375 79.589843zm0 0" fill="#40404c"/><path d="m314.191406 277.917969c7.984375 35.519531 39.714844 62.0625 77.640625 62.0625 37.921875 0 69.664063-26.542969 77.648438-62.0625-7.984375-35.519531-39.714844-62.054688-77.640625-62.054688-37.933594 0-69.664063 26.535157-77.648438 62.054688zm0 0" fill="#589ce0"/><path d="m120.644531 52.667969 7.203125-17.472657c3.449219-8.347656 9.246094-15.25 16.429688-20.066406 7.195312-4.800781 15.78125-7.527344 24.808594-7.527344 24.636718 0 44.613281 19.972657 44.613281 44.609376v20.191406" fill="#40404c"/><path d="m232.710938 123.621094v171.839844l-128.757813-23.5625-89.082031-16.308594 66.785156-161.898438c6.0625-14.691406 16.257812-26.835937 28.902344-35.308594 12.660156-8.460937 27.761718-13.253906 43.660156-13.253906 1.339844 0 2.667969.03125 3.984375.101563 41.5 2.066406 74.507813 36.382812 74.507813 78.390625zm0 0" fill="#5b5b68"/><path d="m158.203125 45.230469-54.25 226.667969-89.082031-16.308594 66.785156-161.898438c6.0625-14.691406 16.257812-26.835937 28.902344-35.308594 12.660156-8.460937 27.761718-13.253906 43.660156-13.253906 1.339844 0 2.667969.03125 3.984375.101563zm0 0" fill="#40404c"/><path d="m232.714844 295.457031c0 62.164063-50.390625 112.558594-112.554688 112.558594-62.164062 0-112.558594-50.394531-112.558594-112.558594 0-62.164062 50.394532-112.558593 112.558594-112.558593 62.164063 0 112.554688 50.394531 112.554688 112.558593zm0 0" fill="#e4e4ef"/><path d="m199.75 295.457031c0 43.957031-35.636719 79.589844-79.589844 79.589844-43.957031 0-79.59375-35.632813-79.59375-79.589844s35.636719-79.589843 79.59375-79.589843c43.953125 0 79.589844 35.632812 79.589844 79.589843zm0 0" fill="#40404c"/><path d="m197.808594 277.917969c-7.984375 35.519531-39.714844 62.0625-77.640625 62.0625-37.921875 0-69.664063-26.542969-77.648438-62.0625 7.984375-35.519531 39.714844-62.054688 77.640625-62.054688 37.933594 0 69.664063 26.535157 77.648438 62.054688zm0 0" fill="#589ce0"/><path d="m89.210938 295.460938c0 15.546874 4.449218 30.039062 12.164062 42.289062-29.28125-7.09375-52.234375-30.371094-58.863281-59.832031 7.988281-35.519531 39.71875-62.054688 77.640625-62.054688 8.484375 0 16.664062 1.328125 24.324218 3.792969-32.054687 10.273438-55.265624 40.324219-55.265624 75.804688zm0 0" fill="#357fbc"/><path d="m360.890625 295.460938c0 15.546874 4.449219 30.039062 12.164063 42.289062-29.28125-7.09375-52.234376-30.371094-58.863282-59.832031 7.988282-35.519531 39.71875-62.054688 77.640625-62.054688 8.484375 0 16.660157 1.328125 24.324219 3.792969-32.054688 10.273438-55.265625 40.324219-55.265625 75.804688zm0 0" fill="#357fbc"/><path d="m120.160156 208.265625c-48.078125 0-87.191406 39.113281-87.191406 87.191406s39.113281 87.191407 87.191406 87.191407c48.074219 0 87.1875-39.113282 87.1875-87.191407s-39.113281-87.191406-87.1875-87.191406zm0 15.203125c33.644532 0 61.960938 23.203125 69.816406 54.445312-3.765624 15.023438-12.425781 28.625-24.550781 38.449219-12.75 10.328125-28.824219 16.015625-45.261719 16.015625-16.441406 0-32.515624-5.6875-45.269531-16.015625-12.125-9.824219-20.789062-23.425781-24.554687-38.449219 7.855468-31.242187 36.171875-54.445312 69.820312-54.445312zm0 143.976562c-33.863281 0-62.320312-23.503906-69.960937-55.050781 4.34375 5.84375 9.421875 11.160157 15.128906 15.78125 15.449219 12.515625 34.921875 19.40625 54.835937 19.40625 19.910157 0 39.382813-6.890625 54.832032-19.40625 5.703125-4.625 10.777344-9.9375 15.121094-15.777343-7.644532 31.542968-36.097657 55.046874-69.957032 55.046874zm0 0"/><path d="m504.1875 252.851562c-.007812-.046874-1.464844-3.691406-2.054688-5.058593l-64.761718-157c-7.980469-19.34375-22.355469-34.589844-40.105469-43.726563l-6.089844-14.769531c-3.957031-9.585937-10.601562-17.707031-19.234375-23.488281-8.632812-5.761719-18.671875-8.808594-29.03125-8.808594-28.789062 0-52.210937 23.421875-52.210937 52.210938v17.527343c-11.882813 14.765625-19.019531 33.503907-19.019531 53.886719v5.800781h-31.363282v-5.800781c0-20.382812-7.136718-39.121094-19.019531-53.886719v-17.527343c0-28.789063-23.421875-52.210938-52.210937-52.210938-10.359376 0-20.398438 3.046875-29.039063 8.816406-8.621094 5.773438-15.269531 13.894532-19.226563 23.480469l-6.089843 14.769531c-17.746094 9.136719-32.125 24.382813-40.101563 43.726563l-16.625 40.300781c-1.601562 3.882812.246094 8.324219 4.128906 9.925781 3.882813 1.601563 8.324219-.246093 9.921876-4.128906l16.625-40.300781c10.992187-26.644532 36.71875-43.859375 65.539062-43.859375 39.089844 0 70.894531 31.800781 70.894531 70.894531v113.394531c-20.566406-36.789062-59.902343-61.722656-104.957031-61.722656-28.21875 0-54.191406 9.785156-74.71875 26.128906l16.40625-39.773437c1.601562-3.878906-.25-8.324219-4.128906-9.925782-3.878906-1.601562-8.324219.25-9.925782 4.128907l-37.921874 91.933593c-.59375 1.367188-2.214844 5.414063-2.289063 5.671876-4.894531 13.078124-7.578125 27.230468-7.578125 41.996093 0 66.253907 53.902344 120.15625 120.160156 120.15625 66.253906 0 120.15625-53.902343 120.15625-120.15625v-4.890625h31.367188v4.890625c0 66.253907 53.902344 120.15625 120.15625 120.15625 66.257812 0 120.160156-53.902343 120.160156-120.15625 0-14.996093-2.769531-29.355469-7.8125-42.605469zm-349.96875-215.324218c-6.875 0-13.601562.820312-20.082031 2.359375l.738281-1.792969c2.804688-6.796875 7.519531-12.554688 13.621094-16.640625 6.125-4.089844 13.246094-6.253906 20.589844-6.253906 20.40625 0 37.011718 16.605469 37.011718 37.011719v2.753906c-14.4375-10.933594-32.410156-17.4375-51.878906-17.4375zm188.695312-22.328125c7.34375 0 14.460938 2.164062 20.578126 6.246093 6.113281 4.09375 10.828124 9.851563 13.632812 16.648438l.738281 1.792969c-6.480469-1.542969-13.207031-2.359375-20.085937-2.359375-19.464844 0-37.4375 6.503906-51.875 17.4375v-2.753906c0-20.40625 16.601562-37.011719 37.011718-37.011719zm-56.027343 108.425781c0-39.09375 31.800781-70.894531 70.894531-70.894531 28.820312 0 54.546875 17.214843 65.535156 43.859375l43.246094 104.835937c-20.527344-16.34375-46.503906-26.128906-74.722656-26.128906-45.054688 0-84.390625 24.933594-104.953125 61.71875zm-15.203125 21.003906v72.96875h-31.367188v-72.96875zm-151.523438 255.785156c-57.875 0-104.957031-47.082031-104.957031-104.957031s47.082031-104.957031 104.957031-104.957031c57.871094 0 104.953125 47.082031 104.953125 104.957031s-47.082031 104.957031-104.953125 104.957031zm120.15625-125.050781v-42.566406h31.367188v42.566406zm151.523438 125.050781c-57.871094 0-104.953125-47.082031-104.953125-104.957031s47.082031-104.957031 104.953125-104.957031c57.875 0 104.957031 47.082031 104.957031 104.957031s-47.082031 104.957031-104.957031 104.957031zm0 0"/><path d="m450.882812 241.546875c-3.355468 2.523437-4.023437 7.289063-1.5 10.644531 5.84375 7.757813 9.976563 16.4375 12.289063 25.660156-3.757813 15.046876-12.425781 28.675782-24.570313 38.511719-12.746093 10.328125-28.820312 16.015625-45.261718 16.015625-16.4375 0-32.515625-5.6875-45.265625-16.015625-12.125-9.820312-20.789063-23.421875-24.554688-38.441406 7.851563-31.246094 36.171875-54.453125 69.820313-54.453125 14.425781 0 28.34375 4.25 40.242187 12.289062 3.480469 2.351563 8.207031 1.4375 10.554688-2.042968 2.351562-3.480469 1.4375-8.203125-2.042969-10.554688-14.421875-9.742187-31.28125-14.894531-48.753906-14.894531-48.078125 0-87.191406 39.113281-87.191406 87.191406s39.113281 87.191407 87.191406 87.191407 87.191406-39.113282 87.191406-87.191407c0-19.082031-6.054688-37.207031-17.507812-52.410156-2.519532-3.355469-7.285157-4.027344-10.640626-1.5zm-59.042968 125.898437c-33.855469 0-62.3125-23.5-69.953125-55.042968 4.339843 5.835937 9.414062 11.152344 15.121093 15.773437 15.449219 12.515625 34.921876 19.40625 54.835938 19.40625 19.910156 0 39.382812-6.890625 54.832031-19.40625 5.707031-4.625 10.785157-9.941406 15.125-15.785156-7.640625 31.550781-36.097656 55.054687-69.960937 55.054687zm0 0"/></svg>