<svg id="Filled" height="32" viewBox="0 0 512 512" width="32" xmlns="http://www.w3.org/2000/svg"><path d="m296 472h-272l16-320h240z" fill="#eb423f"/><path d="m360 472h-64l-16-320h64z" fill="#d13330"/><path d="m488 472h-64l-1-12.93v-.01l-15-195.06h64l14.75 191.69v.01z" fill="#eba72e"/><path d="m128 296h-48v-64l24-16 24 16z" fill="#f7b030"/><path d="m424 472h-208l16-208h176z" fill="#f7b030"/><path d="m479.977 263.386a8 8 0 0 0 -7.977-7.386h-114.79l-5.22-104.4a8 8 0 0 0 -7.99-7.6h-56v-40a71.975 71.975 0 0 0 -96-67.872 71.975 71.975 0 0 0 -96 67.872v40h-56a8 8 0 0 0 -7.99 7.6l-16 320a8 8 0 0 0 7.99 8.4h464a8 8 0 0 0 7.977-8.614zm-23.977 175.036 17.052 25.578h-34.1zm21.676 3.669-13.914-20.87-14.922-149.221h15.752zm-44.916-170.091 15 149.946-17.56 26.334-13.561-176.28zm-91.57-16h-15.057l-5.648-96h15.9zm-36.733-96 5.648 96h-16.9l-4.8-96zm-88.457-112a56.064 56.064 0 0 1 56 56v40h-32v-40a71.886 71.886 0 0 0 -26.727-55.931c.904-.043 1.812-.069 2.727-.069zm-24 5.414a56.069 56.069 0 0 1 32 50.586v40h-64v-40a56.069 56.069 0 0 1 32-50.586zm-80 50.586a56.064 56.064 0 0 1 56-56c.915 0 1.823.026 2.727.069a71.883 71.883 0 0 0 -26.727 55.931v40h-32zm96.592 360h-176.182l15.2-304h48.39v51.719l-20.438 13.625a8 8 0 0 0 -3.562 6.656v64a8 8 0 0 0 8 8h48a8 8 0 0 0 8-8v-64a8 8 0 0 0 -3.562-6.656l-20.438-13.625v-51.719h112v24a8 8 0 0 0 16 0v-24h32.39l4.8 96h-45.19a8 8 0 0 0 -7.977 7.386zm-104.592-238.385 16 10.666v51.719h-32v-51.719zm135.408 46.385h161.184l14.769 192h-190.722z"/><path d="m360 304a8 8 0 0 0 -8 8v64a24.027 24.027 0 0 1 -24 24h-16a24.027 24.027 0 0 1 -24-24v-64a8 8 0 0 0 -16 0v64a40.045 40.045 0 0 0 40 40h16a40.045 40.045 0 0 0 40-40v-64a8 8 0 0 0 -8-8z"/></svg>